
<svg xmlns="http://www.w3.org/2000/svg" version="1.1" xmlns:xlink="http://www.w3.org/1999/xlink" preserveAspectRatio="none" x="0px" y="0px" width="512px" height="512px" viewBox="0 0 512 512">
<defs>
<g id="Layer0_0_FILL">
<path fill="#E5422A" stroke="none" d="
M 489.6 236.45
Q 482.15 151.7 420.5 93.55 358.95 34.85 273.95 32.1 197.4 29.35 136.6 73.25 129.9 78.1 123.85 83.05 115.8 89.7 114.8 100.3 113.75 110.8 120.45 118.9 127.1 126.95 137.7 128 148.2 129 156.25 122.4
L 266.55 256.15 156.05 450.8
Q 229.8 492.4 312.8 474.85 395.8 457.3 446.45 389.25 496.8 320.85 489.6 236.45 Z"/>
</g>

<g id="Layer0_1_FILL">
<path fill="#BF3722" stroke="none" d="
M 420.85 45.75
L 406.25 40.7
Q 404.4 46 406.4 51.2 408.4 56.45 413.3 59.2 418.2 61.95 423.65 60.9 429.15 59.9 432.7 55.6 436.3 51.3 436.3 45.75
L 420.85 45.75 Z"/>
</g>

<g id="Symbol_1_0_Layer0_0_FILL">
<path fill="#FFEEE3" stroke="none" d="
M 33.75 16.85
Q 33.75 9.9 28.75 4.9 23.8 0 16.85 0 9.9 0 4.9 4.9 0 9.9 0 16.85 0 23.85 4.9 28.75 9.9 33.75 16.85 33.75 23.8 33.75 28.75 28.75 33.75 23.85 33.75 16.85 Z"/>
</g>

<g id="Layer0_3_FILL">
<path fill="#FFAE16" stroke="none" d="
M 442.6 40.85
L 431.6 40.85
Q 431.6 43.15 433.2 44.75 434.8 46.35 437.1 46.35 439.4 46.35 441 44.75 442.6 43.15 442.6 40.85 Z"/>
</g>

<g id="Layer0_4_FILL">
<path fill="#FFCC00" stroke="none" d="
M 442.6 40.85
L 431.6 40.85
Q 431.6 43.15 433.2 44.75 434.8 46.35 437.1 46.35 439.4 46.35 441 44.75 442.6 43.15 442.6 40.85 Z"/>
</g>

<g id="Layer0_5_FILL">
<path fill="#2D3024" stroke="none" d="
M 467.75 33.55
Q 468.7 32.6 468.7 31.25 468.7 29.9 467.75 28.95 466.8 28 465.45 28 464.1 28 463.15 28.95 462.2 29.9 462.2 31.25 462.2 32.6 463.15 33.55 464.1 34.5 465.45 34.5 466.8 34.5 467.75 33.55 Z"/>
</g>
</defs>

<g transform="matrix( 1, 0, 0, 1, 0,0) ">
<use xlink:href="#Layer0_0_FILL"/>
</g>

<g transform="matrix( 0, -12.470840454101562, 12.456710815429688, 0, -350.95,5517.15) ">
<use xlink:href="#Layer0_1_FILL"/>
</g>

<g transform="matrix( 8, 0, 0, 8, 87.75,76) ">
<g transform="matrix( 1, 0, 0, 1, 0,0) ">
<use xlink:href="#Symbol_1_0_Layer0_0_FILL"/>
</g>
</g>

<g transform="matrix( 7.4036865234375, 8.6708984375, -8.6708984375, 7.4036865234375, -2709.05,-3794.5) ">
<use xlink:href="#Layer0_3_FILL"/>
</g>

<g transform="matrix( 0.0001220703125, 23.997802734375, -21.6375732421875, 0.0001220703125, 1024.4,-10238.35) ">
<use xlink:href="#Layer0_4_FILL"/>
</g>

<g transform="matrix( 7.3787841796875, 0, 0, 7.440185546875, -3193.45,-66) ">
<use xlink:href="#Layer0_5_FILL"/>
</g>
</svg>
