<svg width="24" height="24" viewBox="0 0 24 24" fill="none" xmlns="http://www.w3.org/2000/svg">
<path d="M10 2C9.448 2 9 2.448 9 3V4H2V6H9V7C9 7.552 9.448 8 10 8H11C11.552 8 12 7.552 12 7V3C12 2.448 11.552 2 11 2H10ZM14 4V6H22V4H14ZM15 9C14.448 9 14 9.448 14 10V11H2V13H14V14C14 14.552 14.448 15 15 15H16C16.552 15 17 14.552 17 14V10C17 9.448 16.552 9 16 9H15ZM19 11V13H22V11H19ZM5 16C4.448 16 4 16.448 4 17V18H2V20H4V21C4 21.552 4.448 22 5 22H6C6.552 22 7 21.552 7 21V17C7 16.448 6.552 16 6 16H5ZM9 18V20H22V18H9Z" fill="#2E3034"/>
</svg>
